M48
INCH,TZ
T1C0.0157
T2C0.0300
T3C0.0315
T4C0.0360
T5C0.0394
T6C0.0433
T7C0.0512
T8C0.0630
%
G90
G05
T1
X35510Y-39070
X35900Y-39632
X36370Y-31450
X36456Y-40634
X36525Y-32800
X36530Y-30810
X37050Y-30470
X37580Y-32820
X37905Y-30890
X38250Y-21590
X38650Y-20990
X38734Y-43966
X39484Y-42162
X39630Y-31110
X39810Y-20750
X40090Y-38010
X40250Y-18830
X40550Y-30835
X40596Y-32912
X40715Y-28070
X41415Y-30830
X41440Y-22155
X41595Y-27655
X41735Y-22725
X42025Y-21550
X42030Y-29170
X42050Y-39510
X42240Y-29860
X42415Y-22155
X42430Y-24870
X42450Y-28130
X42770Y-41110
X43090Y-31810
X43420Y-21620
X43490Y-30750
X43590Y-41530
X43930Y-22910
X43930Y-23290
X43930Y-23690
X43930Y-24090
X43930Y-24490
X43930Y-24890
X43960Y-40700
X43970Y-27070
X43970Y-28430
X44100Y-30690
X44310Y-21135
X44330Y-24890
X44350Y-22910
X44350Y-38010
X44700Y-21145
X44750Y-22910
X44750Y-24890
X44800Y-30730
X44890Y-41990
X44998Y-35096
X45100Y-21145
X45130Y-27090
X45130Y-28430
X45150Y-22910
X45150Y-24890
X46060Y-27080
X46060Y-28430
X46070Y-36730
X46370Y-19830
X46730Y-29240
X46750Y-20110
X47145Y-31435
X47330Y-20710
X47430Y-29250
X47570Y-19085
X47880Y-22166
X47926Y-27712
X47926Y-28298
X47960Y-18820
X48000Y-19782
X48086Y-22682
X48130Y-29240
X48150Y-36960
X48412Y-20056
X48532Y-22682
X48796Y-32010
X48890Y-20190
X48964Y-26692
X49090Y-30770
X50402Y-20004
X50532Y-28148
X50548Y-28658
X50590Y-23424
X50710Y-38250
X50795Y-29189
X51398Y-29188
X51684Y-25150
X51700Y-25574
X51974Y-29182
X52172Y-25166
X52172Y-25558
X52290Y-26330
X52564Y-29196
X52854Y-26416
X52870Y-36510
X53146Y-29160
X53290Y-36510
X53414Y-26532
X53422Y-27152
X53422Y-28046
X53422Y-28664
X53490Y-35790
X53910Y-35770
X54086Y-22630
X54444Y-22574
X54730Y-19030
X55450Y-41400
X55790Y-22230
X56240Y-22856
X56522Y-23480
X56560Y-24764
X56806Y-19304
X57506Y-18152
X58000Y-44560
X58080Y-45300
X58260Y-22820
X58265Y-25830
X58990Y-31190
X59110Y-31970
X59110Y-32430
X59510Y-31970
X59910Y-31970
X60310Y-31970
X60330Y-25210
X60580Y-48710
X60730Y-31970
X61024Y-48710
X61370Y-31190
X61380Y-26420
X61810Y-37190
X62490Y-42706
X62678Y-21858
X62800Y-41310
X62870Y-27930
X62890Y-30010
X62930Y-22950
X63050Y-21858
X63490Y-28510
X63490Y-29370
X63930Y-26990
X64120Y-46090
X64554Y-39990
X64576Y-40394
X64890Y-53790
X66510Y-22930
X67960Y-38370
X68190Y-41600
X68200Y-43095
X68245Y-48405
X68245Y-49120
X68245Y-51395
X68250Y-46105
X68260Y-41100
X69690Y-34310
T2
X55100Y-28250
X55100Y-29050
X55100Y-29850
X55100Y-30650
X55100Y-31450
X55850Y-28250
X55850Y-29050
X55850Y-29850
X55850Y-30650
X55850Y-31450
X56650Y-28250
X56650Y-29050
X56650Y-29850
X56650Y-30650
X56650Y-31450
X57450Y-28250
X57450Y-29050
X57450Y-29850
X57450Y-30650
X57450Y-31450
T3
X40306Y-40230
X41290Y-40230
X65474Y-34548
X65474Y-36517
X59800Y-47850
X59800Y-50850
X60800Y-47850
X60800Y-50850
X61800Y-47850
X61800Y-50850
X62800Y-47850
X62800Y-50850
X59906Y-52670
X60890Y-52670
X50200Y-43500
X51184Y-43500
X52170Y-37950
X54139Y-37950
X59886Y-46010
X60870Y-46010
X55100Y-43500
X56084Y-43500
X49386Y-25780
X50370Y-25780
X46450Y-38200
X46450Y-41200
X47450Y-38200
X47450Y-41200
X48450Y-38200
X48450Y-41200
X49450Y-38200
X49450Y-41200
X41200Y-33700
X41200Y-34700
X41200Y-35700
X41200Y-36700
X44200Y-33700
X44200Y-34700
X44200Y-35700
X44200Y-36700
X40150Y-43450
X41134Y-43450
X53830Y-40390
X53830Y-41374
X45150Y-43500
X46134Y-43500
T4
X38650Y-51696
X38650Y-54696
X39650Y-51696
X39650Y-54696
X40650Y-51696
X40650Y-54696
X41650Y-51696
X41650Y-54696
X42650Y-51696
X42650Y-54696
X43650Y-51696
X43650Y-54696
X44650Y-51696
X44650Y-54696
X45650Y-51696
X45650Y-54696
X46650Y-51696
X46650Y-54696
X47650Y-51696
X47650Y-54696
X48650Y-51696
X48650Y-54696
X49650Y-51696
X49650Y-54696
X50650Y-51696
X50650Y-54696
X51650Y-51696
X51650Y-54696
X52650Y-51696
X52650Y-54696
X53650Y-51696
X53650Y-54696
X54650Y-51696
X54650Y-54696
X55650Y-51696
X55650Y-54696
X56650Y-51696
X56650Y-54696
X57650Y-51696
X57650Y-54696
T5
X38650Y-56096
X39650Y-56096
X40650Y-56096
X41650Y-56096
X42650Y-56096
X43650Y-56096
X44650Y-56096
X45650Y-56096
X46650Y-56096
X47650Y-56096
X38690Y-34250
X38690Y-35250
X38690Y-36250
X70570Y-42776
X70570Y-43776
X70570Y-44776
X70570Y-45776
X70570Y-46776
X70570Y-47776
X70570Y-48776
X70570Y-49776
X70570Y-50776
X70570Y-51776
X71570Y-42776
X71570Y-43776
X71570Y-44776
X71570Y-45776
X71570Y-46776
X71570Y-47776
X71570Y-48776
X71570Y-49776
X71570Y-50776
X71570Y-51776
X65370Y-39170
X65370Y-40170
X66370Y-39170
X66370Y-40170
X67370Y-39170
X67370Y-40170
X56530Y-38606
X58530Y-38610
X60850Y-38450
X60850Y-39450
X60850Y-40450
X41950Y-19650
X42950Y-19650
X43950Y-19650
X44950Y-19650
X63050Y-56100
X64050Y-56100
X35550Y-45950
X35550Y-46950
X35550Y-47950
X35550Y-48950
X35550Y-49950
X35550Y-50950
X35550Y-51950
X35550Y-52950
X65800Y-56100
X66800Y-56100
X38700Y-40150
X38700Y-41150
X38700Y-42150
X38700Y-43150
X73100Y-35700
X73100Y-36700
X73100Y-37700
X73100Y-38700
X73100Y-39700
X48650Y-56096
X49650Y-56096
X50650Y-56096
X51650Y-56096
X52650Y-56096
X53650Y-56096
X54650Y-56096
X55650Y-56096
X56650Y-56096
X57650Y-56096
X56510Y-40706
X58510Y-40710
X59350Y-56100
X60350Y-56100
X61350Y-56100
X70950Y-33650
X71950Y-33650
X35550Y-40650
X35550Y-41650
X35550Y-42650
X68500Y-56100
X69500Y-56100
X62250Y-38450
X62250Y-39450
X62250Y-40450
X67800Y-33650
X68800Y-33650
X69950Y-36700
X69950Y-37700
X69950Y-38700
X35550Y-33250
X35550Y-34250
X35550Y-35250
X35550Y-36250
X35550Y-37250
T6
X60090Y-19650
X61090Y-19650
X62090Y-19650
X51850Y-19650
X52850Y-19650
X53850Y-19650
T7
X51866Y-24250
X52850Y-23266
X53834Y-24250
X39650Y-47150
X40634Y-46166
X41619Y-47150
X54650Y-47150
X55634Y-46166
X56619Y-47150
X59350Y-24250
X60334Y-23266
X61319Y-24250
X49650Y-47150
X50634Y-46166
X51619Y-47150
X46966Y-35034
X47950Y-34050
X48934Y-35034
X44650Y-47150
X45634Y-46166
X46619Y-47150
T8
X65410Y-24450
X71410Y-24450
X65410Y-26750
X71410Y-26750
X65410Y-31350
X71410Y-31350
X65410Y-29050
X71410Y-29050
T5
G00X66300Y-20225
M15
G01X66300Y-21013
M16
G05
G00X68544Y-19438
M15
G01X67756Y-19438
M16
G05
G00X68544Y-21800
M15
G01X67756Y-21800
M16
G05
T0
M30
